HIERARCHY
ROOT Hips
{
	OFFSET -21.947001 39.810204 44.525997
	CHANNELS 6 Xposition Yposition Zposition Zrotation Xrotation Yrotation
	JOINT Chest
	{
		OFFSET -0.201599 0.334099 6.453201
		CHANNELS 6 Xposition Yposition Zposition Zrotation Xrotation Yrotation
		JOINT Chest2
		{
			OFFSET 0.000000 0.000000 3.568001
			CHANNELS 6 Xposition Yposition Zposition Zrotation Xrotation Yrotation
			JOINT Neck
			{
				OFFSET 0.000000 0.000000 8.296402
				CHANNELS 6 Xposition Yposition Zposition Zrotation Xrotation Yrotation
				JOINT Head
				{
					OFFSET 0.000000 0.000000 2.173901
					CHANNELS 6 Xposition Yposition Zposition Zrotation Xrotation Yrotation
					End Site
					{
						OFFSET 0.000000 0.000000 7.891998
					}
				}
			}
			JOINT LeftCollar
			{
				OFFSET 1.927601 0.221401 6.049000
				CHANNELS 6 Xposition Yposition Zposition Zrotation Xrotation Yrotation
				JOINT LeftShoulder
				{
					OFFSET 4.959700 0.000000 0.000000
					CHANNELS 6 Xposition Yposition Zposition Zrotation Xrotation Yrotation
					JOINT LeftElbow
					{
						OFFSET 0.000000 0.000000 -8.654202
						CHANNELS 6 Xposition Yposition Zposition Zrotation Xrotation Yrotation
						JOINT LeftWrist
						{
							OFFSET 0.000000 0.000000 -13.864101
							CHANNELS 6 Xposition Yposition Zposition Zrotation Xrotation Yrotation
							End Site
							{
								OFFSET 0.000000 0.000000 -2.173901
							}
						}
					}
				}
			}
			JOINT RightCollar
			{
				OFFSET -3.155701 -0.764999 6.687801
				CHANNELS 6 Xposition Yposition Zposition Zrotation Xrotation Yrotation
				JOINT RightShoulder
				{
					OFFSET -3.592899 0.000000 0.000000
					CHANNELS 6 Xposition Yposition Zposition Zrotation Xrotation Yrotation
					JOINT RightElbow
					{
						OFFSET 0.000000 0.000000 -10.352398
						CHANNELS 6 Xposition Yposition Zposition Zrotation Xrotation Yrotation
						JOINT RightWrist
						{
							OFFSET 0.000000 0.000000 -12.750301
							CHANNELS 6 Xposition Yposition Zposition Zrotation Xrotation Yrotation
							End Site
							{
								OFFSET 0.000000 0.000000 -2.173901
							}
						}
					}
				}
			}
		}
	}
	JOINT LeftHip
	{
		OFFSET 2.460600 -0.518101 -2.735500
		CHANNELS 6 Xposition Yposition Zposition Zrotation Xrotation Yrotation
		JOINT LeftKnee
		{
			OFFSET 0.000000 -0.000004 -17.005899
			CHANNELS 6 Xposition Yposition Zposition Zrotation Xrotation Yrotation
			JOINT LeftAnkle
			{
				OFFSET 0.000000 0.000000 -19.194401
				CHANNELS 6 Xposition Yposition Zposition Zrotation Xrotation Yrotation
				End Site
				{
					OFFSET 0.000000 -8.134600 0.000000
				}
			}
		}
	}
	JOINT RightHip
	{
		OFFSET -3.115499 -0.679600 -2.320301
		CHANNELS 6 Xposition Yposition Zposition Zrotation Xrotation Yrotation
		JOINT RightKnee
		{
			OFFSET 0.000000 -0.000004 -17.680401
			CHANNELS 6 Xposition Yposition Zposition Zrotation Xrotation Yrotation
			JOINT RightAnkle
			{
				OFFSET 0.000000 0.000000 -16.993797
				CHANNELS 6 Xposition Yposition Zposition Zrotation Xrotation Yrotation
				End Site
				{
					OFFSET 0.000000 -8.842300 0.000000
				}
			}
		}
	}
}
MOTION
Frames: 8
Frame Time: 0.041667
-17.054098 15.320099 47.811695 2476.863519 -8.762538 -3.010610 -0.201602 0.334093 6.453212 2.031316 9.388151 3.408463 -0.000004 -0.000001 3.567994 -2.490834 -0.301054 -0.419674 0.000003 0.000002 8.296403 224.146605 -182.830162 173.888762 -0.000003 0.000001 2.173899 1.604394 2.550207 4.809493 1.927602 0.221407 6.049000 -19.975061 0.001550 2.212193 4.959701 -0.000001 0.000002 145.405876 179.250747 109.718451 -0.000003 -0.000003 -8.654196 13.502805 -66.042588 49.476418 -0.000003 -0.000001 -13.864100 4116.080506 -198.729750 330.225467 -3.155704 -0.764997 6.687802 42.597735 5.844099 0.746901 -3.592895 -0.000001 -0.000001 -158.506042 160.932644 256.271102 0.000000 -0.000001 -10.352385 -231.803506 -40.139929 -238.959414 -0.000002 0.000000 -12.750305 121.830658 181.873294 -129.571967 2.460601 -0.518107 -2.735499 -377.602992 11.964877 -0.776845 -0.000002 -0.000001 -17.005896 174.303573 167.895339 -167.489188 -0.000003 0.000002 -19.194391 568.905635 132.944892 182.206989 -3.115499 -0.679598 -2.320301 -368.972529 -3.657728 4.767004 -0.000005 -0.000002 -17.680399 -468.363721 154.189499 -206.433343 0.000002 0.000001 -16.993793 1034.389639 31.980896 -384.299583
-17.134094 15.208008 47.727692 2476.757077 -9.000639 -2.931086 -0.201599 0.334097 6.453206 2.028906 9.499013 3.415247 0.000001 0.000001 3.567993 -2.542516 -0.256858 -0.439622 0.000004 -0.000002 8.296399 224.057567 -182.751547 173.889294 -0.000002 0.000001 2.173906 1.643705 2.588550 4.730443 1.927601 0.221399 6.048996 -19.897639 0.105478 2.261741 4.959700 -0.000000 0.000003 145.661652 181.203006 111.136815 -0.000002 -0.000001 -8.654194 7.439698 -65.136352 45.372329 -0.000006 0.000000 -13.864100 4116.510207 -197.247954 327.291791 -3.155703 -0.765006 6.687794 42.581158 5.720485 0.479192 -3.592901 -0.000001 0.000011 -158.144793 160.374563 254.452987 0.000006 -0.000010 -10.352386 -232.218126 -41.473301 -241.331129 0.000001 0.000004 -12.750290 124.083063 181.857202 -128.909849 2.460600 -0.518101 -2.735494 -377.567257 12.310169 -0.688475 -0.000003 -0.000000 -17.005898 173.833464 167.644056 -167.333214 -0.000004 -0.000000 -19.194397 569.117863 133.773872 183.341334 -3.115497 -0.679595 -2.320300 -368.560286 -2.824080 4.891838 -0.000001 0.000001 -17.680397 -472.416864 154.391905 -203.531482 0.000002 -0.000001 -16.993793 1035.438537 31.187631 -381.617040
-17.229698 15.104004 47.646194 2476.669651 -9.168787 -2.883559 -0.201601 0.334100 6.453199 2.039016 9.494113 3.459663 -0.000003 0.000007 3.567994 -2.573446 -0.244547 -0.465644 0.000007 0.000005 8.296398 223.997215 -182.760330 173.801280 -0.000001 -0.000001 2.173902 1.641617 2.651596 4.670922 1.927601 0.221408 6.048996 -19.859526 0.282803 2.314847 4.959705 -0.000004 0.000008 145.269340 181.722702 112.581366 0.000002 0.000000 -8.654193 3.066312 -64.027279 41.320046 -0.000006 0.000003 -13.864096 4117.172899 -195.283591 323.926448 -3.155708 -0.764997 6.687793 42.514820 5.599467 0.213801 -3.592902 0.000005 0.000006 -157.637679 159.858433 252.618808 0.000002 -0.000005 -10.352392 -234.699835 -40.659112 -244.810591 -0.000001 0.000003 -12.750303 123.126318 181.854975 -128.509422 2.460601 -0.518098 -2.735504 -377.545728 12.548262 -0.623334 -0.000002 0.000001 -17.005901 173.186837 167.354907 -167.108747 -0.000000 0.000000 -19.194399 569.528330 134.643041 184.466744 -3.115497 -0.679597 -2.320300 -368.291887 -2.139077 4.954705 -0.000002 -0.000002 -17.680401 -475.846329 154.848858 -200.912542 0.000004 0.000001 -16.993790 1036.810913 30.789875 -379.154155
-17.341099 15.010609 47.567791 2476.623096 -9.279188 -2.848751 -0.201596 0.334098 6.453213 2.015677 9.388696 3.546116 0.000003 0.000006 3.567989 -2.824149 -0.048309 -0.350105 -0.000003 0.000000 8.296393 224.236873 -182.569577 173.639063 -0.000003 -0.000000 2.173899 1.610501 2.723571 4.648205 1.927599 0.221404 6.049002 -19.579313 0.382390 2.101576 4.959702 -0.000004 0.000011 144.864638 182.265606 114.057418 -0.000009 -0.000005 -8.654207 -1.026980 -62.759350 37.475906 0.000008 0.000003 -13.864100 4117.770021 -193.085937 320.325272 -3.155708 -0.764999 6.687803 42.637418 5.207564 0.042339 -3.592894 -0.000001 0.000007 -156.993442 159.344065 250.699962 0.000005 -0.000006 -10.352400 -235.637155 -42.371246 -247.590423 -0.000004 0.000004 -12.750295 124.627962 182.174751 -127.770805 2.460605 -0.518096 -2.735499 -377.614603 12.714693 -0.575802 -0.000004 -0.000003 -17.005903 172.395901 167.061892 -166.831673 0.000001 -0.000001 -19.194399 570.166269 135.530037 185.359094 -3.115495 -0.679597 -2.320291 -368.234295 -1.656906 4.955243 0.000000 0.000004 -17.680393 -478.188647 155.452319 -198.869509 0.000008 0.000004 -16.993793 1038.107884 30.620667 -377.053599
-17.457897 14.921801 47.482689 2476.539385 -9.327277 -2.978232 -0.201600 0.334100 6.453212 1.985720 9.209707 3.792589 0.000001 0.000009 3.567995 -2.867348 0.000695 -0.351706 0.000003 0.000000 8.296393 224.286159 -182.578388 173.468705 -0.000001 -0.000002 2.173891 1.613681 2.787504 4.614741 1.927597 0.221404 6.048995 -19.451911 0.591749 2.002068 4.959700 0.000004 0.000009 144.484196 182.865187 115.504086 0.000005 -0.000003 -8.654200 -4.692125 -61.391475 34.065531 0.000002 -0.000000 -13.864095 4118.461127 -190.505901 316.971867 -3.155702 -0.765003 6.687791 42.550029 4.995208 -0.007573 -3.592903 -0.000003 0.000003 -156.232518 158.959580 248.672817 -0.000002 -0.000004 -10.352394 -237.389454 -43.135827 -250.916917 -0.000003 0.000003 -12.750299 125.350405 182.372635 -127.138739 2.460599 -0.518100 -2.735498 -377.991794 12.813811 -0.357408 -0.000006 -0.000000 -17.005898 171.620633 166.851208 -166.486052 -0.000003 -0.000001 -19.194401 571.006984 136.463765 186.453728 -3.115501 -0.679595 -2.320289 -368.252518 -1.411953 5.085579 -0.000001 -0.000001 -17.680399 -479.528949 156.062746 -197.473815 0.000001 -0.000004 -16.993793 1039.285846 30.565172 -375.703189
-17.581398 14.840103 47.388294 2476.429884 -9.392745 -3.285696 -0.201602 0.334102 6.453199 1.967499 9.077274 4.231354 0.000001 -0.000001 3.567999 -2.900349 0.100716 -0.345546 -0.000001 -0.000001 8.296406 224.368490 -182.536860 173.316269 -0.000003 0.000001 2.173902 1.575790 2.796379 4.597020 1.927595 0.221401 6.048999 -19.317361 0.742639 1.825982 4.959705 -0.000007 0.000005 144.110598 183.482910 116.872023 -0.000000 -0.000005 -8.654200 -7.863964 -59.940039 31.135315 -0.000006 -0.000000 -13.864093 4119.035082 -187.811050 313.857028 -3.155706 -0.765005 6.687802 42.395749 4.655194 0.049241 -3.592904 -0.000003 0.000002 -155.296713 158.488324 246.581249 0.000004 -0.000005 -10.352392 -239.443483 -43.706005 -254.477194 -0.000001 0.000002 -12.750301 126.515963 182.408330 -126.500008 2.460599 -0.518093 -2.735509 -378.648967 12.937571 0.050618 -0.000003 -0.000001 -17.005905 170.887494 166.751173 -166.082142 -0.000006 0.000003 -19.194405 571.929770 137.446970 187.918421 -3.115499 -0.679591 -2.320305 -368.326338 -1.310109 5.383065 0.000003 0.000000 -17.680401 -480.969026 156.457367 -196.456499 0.000005 -0.000000 -16.993793 1040.738545 30.679980 -374.335402
-17.709497 14.764408 47.281193 2476.378302 -9.645380 -3.749159 -0.201602 0.334097 6.453198 1.862631 9.184620 4.846368 0.000001 0.000001 3.567996 -2.940547 0.182237 -0.344904 -0.000002 0.000005 8.296397 224.475670 -182.480019 173.174214 -0.000003 -0.000001 2.173908 1.526532 2.763370 4.584812 1.927600 0.221409 6.048992 -19.098693 0.866034 1.573427 4.959702 -0.000005 0.000005 143.694408 184.128294 118.206683 -0.000002 0.000005 -8.654201 -10.556828 -58.402700 28.654744 -0.000002 0.000004 -13.864094 4119.255833 -185.439855 310.968022 -3.155706 -0.764997 6.687802 42.102901 4.192854 0.397292 -3.592907 -0.000003 0.000007 -154.019687 158.042750 244.211747 0.000002 -0.000005 -10.352393 -241.694167 -44.181827 -258.142301 0.000000 0.000005 -12.750300 128.180644 182.187277 -125.887025 2.460596 -0.518096 -2.735507 -379.754092 13.181142 0.716831 -0.000002 -0.000000 -17.005898 170.426921 166.704946 -165.630079 -0.000002 0.000003 -19.194397 572.887089 138.443686 189.444244 -3.115503 -0.679596 -2.320299 -368.497776 -1.158067 5.871183 0.000000 -0.000003 -17.680399 -481.813674 156.735506 -195.968291 0.000001 0.000011 -16.993792 1041.813890 30.807172 -373.447232
-17.854797 14.698505 47.162891 2476.161703 -9.865004 -4.195257 -0.201598 0.334098 6.453206 1.904236 9.306438 5.439269 -0.000001 0.000005 3.567996 -2.960231 0.248933 -0.344601 0.000003 0.000002 8.296391 224.574243 -182.405666 173.050998 -0.000005 0.000000 2.173904 1.493397 2.706245 4.560445 1.927599 0.221404 6.048990 -18.828246 0.971476 1.282164 4.959702 -0.000003 -0.000004 143.230966 184.737534 119.454217 0.000004 -0.000001 -8.654206 -12.585610 -56.775825 26.722067 0.000003 -0.000000 -13.864084 4119.159227 -183.377288 308.403504 -3.155708 -0.765001 6.687797 41.791995 3.653879 1.897677 -3.592898 -0.000001 -0.000005 -152.252512 158.158740 240.781572 0.000002 -0.000006 -10.352392 -244.052303 -44.471403 -261.873769 -0.000007 0.000003 -12.750305 130.234769 181.922321 -125.405907 2.460599 -0.518101 -2.735505 -380.771763 13.466882 1.360041 -0.000002 -0.000005 -17.005898 170.157525 166.714331 -165.252670 -0.000003 0.000002 -19.194401 573.724634 139.415267 190.979753 -3.115496 -0.679596 -2.320300 -368.466412 -1.067562 6.272437 -0.000005 0.000000 -17.680393 -481.905581 156.895879 -195.928443 0.000000 0.000004 -16.993795 1042.270475 30.884616 -373.144381
